<svg xmlns="http://www.w3.org/2000/svg" width="105" height="24" viewBox="0 0 105 24" fill="none">
<path d="M89.0319 15.4719C89.0319 13.9456 89.37 12.6125 90.0462 11.4726C90.7418 10.3134 91.6884 9.41505 92.8863 8.77748C94.1034 8.13992 95.4848 7.82114 97.0305 7.82114C98.5761 7.82114 99.9478 8.13992 101.146 8.77748C102.343 9.41505 103.281 10.3134 103.957 11.4726C104.652 12.6125 105 13.9456 105 15.4719C105 16.9982 104.652 18.3313 103.957 19.4712C103.281 20.6111 102.343 21.4998 101.146 22.1374C99.9478 22.7749 98.5761 23.0937 97.0305 23.0937C95.4848 23.0937 94.1034 22.7749 92.8863 22.1374C91.6884 21.4998 90.7418 20.6111 90.0462 19.4712C89.37 18.3313 89.0319 16.9982 89.0319 15.4719ZM93.5239 15.4429C93.5239 16.1771 93.6687 16.8243 93.9586 17.3846C94.2677 17.9256 94.6831 18.3506 95.2047 18.6597C95.7263 18.9495 96.3349 19.0944 97.0305 19.0944C97.726 19.0944 98.3346 18.9495 98.8562 18.6597C99.3778 18.3506 99.7836 17.9256 100.073 17.3846C100.363 16.8243 100.508 16.1771 100.508 15.4429C100.508 14.7088 100.363 14.0712 100.073 13.5302C99.7836 12.9893 99.3778 12.5739 98.8562 12.2841C98.3346 11.975 97.726 11.8204 97.0305 11.8204C96.3349 11.8204 95.7263 11.975 95.2047 12.2841C94.6831 12.5739 94.2677 12.9893 93.9586 13.5302C93.6687 14.0712 93.5239 14.7088 93.5239 15.4429Z" fill="#3D3E8B"/>
<path d="M71.2589 15.4719C71.2589 13.9456 71.597 12.6125 72.2732 11.4726C72.9687 10.3134 73.9154 9.41505 75.1133 8.77748C76.3304 8.13992 77.7118 7.82114 79.2574 7.82114C80.8031 7.82114 82.1748 8.13992 83.3726 8.77748C84.5705 9.41505 85.5075 10.3134 86.1837 11.4726C86.8792 12.6125 87.227 13.9456 87.227 15.4719C87.227 16.9982 86.8792 18.3313 86.1837 19.4712C85.5075 20.6111 84.5705 21.4998 83.3726 22.1374C82.1748 22.7749 80.8031 23.0937 79.2574 23.0937C77.7118 23.0937 76.3304 22.7749 75.1133 22.1374C73.9154 21.4998 72.9687 20.6111 72.2732 19.4712C71.597 18.3313 71.2589 16.9982 71.2589 15.4719ZM75.7508 15.4429C75.7508 16.1771 75.8957 16.8243 76.1855 17.3846C76.4947 17.9256 76.91 18.3506 77.4317 18.6597C77.9533 18.9495 78.5619 19.0944 79.2574 19.0944C79.953 19.0944 80.5616 18.9495 81.0832 18.6597C81.6048 18.3506 82.0106 17.9256 82.3004 17.3846C82.5902 16.8243 82.7351 16.1771 82.7351 15.4429C82.7351 14.7088 82.5902 14.0712 82.3004 13.5302C82.0106 12.9893 81.6048 12.5739 81.0832 12.2841C80.5616 11.975 79.953 11.8204 79.2574 11.8204C78.5619 11.8204 77.9533 11.975 77.4317 12.2841C76.91 12.5739 76.4947 12.9893 76.1855 13.5302C75.8957 14.0712 75.7508 14.7088 75.7508 15.4429Z" fill="#3D3E8B"/>
<path d="M59.5901 23.1227C58.1991 23.1227 56.9915 22.8136 55.9676 22.1953C54.9436 21.5771 54.1418 20.7077 53.5622 19.5871C53.0019 18.4472 52.7218 17.1141 52.7218 15.5879C52.7218 14.0422 53.0116 12.6898 53.5912 11.5306C54.1708 10.3521 54.9919 9.43439 56.0545 8.77751C57.1365 8.12063 58.4116 7.79218 59.8799 7.79218C60.788 7.79218 61.6284 7.9564 62.4012 8.28485C63.1933 8.61329 63.8019 9.04799 64.2269 9.58895V0.894897H68.6899V22.746H64.4878L64.2559 20.8912C63.8695 21.5481 63.2513 22.0891 62.4012 22.5141C61.5704 22.9198 60.6334 23.1227 59.5901 23.1227ZM60.6624 19.0365C61.3579 19.0365 61.9665 18.8916 62.4881 18.6018C63.0291 18.2927 63.4445 17.8676 63.7343 17.3267C64.0434 16.7664 64.198 16.1288 64.198 15.414C64.198 14.6798 64.0434 14.0422 63.7343 13.5013C63.4445 12.9603 63.0291 12.5449 62.4881 12.2551C61.9665 11.946 61.3579 11.7915 60.6624 11.7915C59.9668 11.7915 59.3583 11.946 58.8366 12.2551C58.315 12.5643 57.9093 12.9893 57.6194 13.5303C57.349 14.0712 57.2137 14.6991 57.2137 15.414C57.2137 16.1288 57.349 16.7567 57.6194 17.2977C57.9093 17.8386 58.315 18.2637 58.8366 18.5728C59.3583 18.8819 59.9668 19.0365 60.6624 19.0365Z" fill="#3D3E8B"/>
<path d="M40.3923 22.746H35.9293V8.25586H40.1314L40.4213 9.76283C40.8656 9.14458 41.4742 8.66158 42.247 8.31382C43.0391 7.96606 43.9085 7.79218 44.8552 7.79218C46.5747 7.79218 47.9078 8.32348 48.8545 9.38609C49.8205 10.4294 50.3035 11.8977 50.3035 13.7911V22.746H45.8405V14.8633C45.8405 13.9553 45.6087 13.2308 45.145 12.6898C44.6813 12.1295 44.0631 11.8494 43.2903 11.8494C42.4016 11.8494 41.6964 12.1199 41.1747 12.6608C40.6531 13.1825 40.3923 13.8973 40.3923 14.8054V22.746Z" fill="#3D3E8B"/>
<path d="M23.9474 23.1227C22.4211 23.1227 21.2039 22.7073 20.2959 21.8765C19.4071 21.0265 18.9628 19.8962 18.9628 18.4859C18.9628 17.1528 19.4168 16.0902 20.3248 15.298C21.2522 14.5059 22.5853 14.0422 24.3241 13.907L28.3813 13.5882V13.3564C28.3813 12.8734 28.2847 12.4773 28.0915 12.1682C27.8983 11.8397 27.6182 11.5982 27.2511 11.4437C26.9033 11.2698 26.459 11.1829 25.918 11.1829C24.9713 11.1829 24.2468 11.3567 23.7445 11.7045C23.2615 12.0523 23.02 12.5546 23.02 13.2115H19.3105C19.3105 12.1102 19.5907 11.1539 20.151 10.3424C20.7112 9.53099 21.5034 8.90308 22.5273 8.45872C23.5706 8.01436 24.7781 7.79218 26.1499 7.79218C27.5602 7.79218 28.7484 8.04334 29.7144 8.54566C30.6997 9.04798 31.4436 9.78215 31.9459 10.7482C32.4675 11.7142 32.7284 12.8927 32.7284 14.2837V22.746H28.7871L28.4973 20.8333C28.2654 21.4901 27.7148 22.0408 26.8454 22.4851C25.9953 22.9102 25.0293 23.1227 23.9474 23.1227ZM25.5123 19.819C26.3624 19.819 27.0579 19.6161 27.5989 19.2104C28.1398 18.7853 28.4103 18.1574 28.4103 17.3267V16.5442L26.1499 16.7471C25.1839 16.8243 24.498 16.9886 24.0923 17.2397C23.7059 17.4716 23.5127 17.8193 23.5127 18.283C23.5127 18.8046 23.6769 19.1911 24.0053 19.4422C24.3338 19.6934 24.8361 19.819 25.5123 19.819Z" fill="#3D3E8B"/>
<path d="M17.9677 1.30063L3.5066 20.1957V13.1245L12.4325 1.30063H17.9677ZM4.69479 1.30063V22.746H0V1.30063H4.69479ZM7.73771 14.1968L10.7227 10.0816L18.0257 22.746H12.6064L7.73771 14.1968Z" fill="#3D3E8B"/>
</svg>